<svg id="visual" viewBox="0 0 960 540" width="960" height="540" xmlns="http://www.w3.org/2000/svg" xmlns:xlink="http://www.w3.org/1999/xlink" version="1.1"><rect x="0" y="0" width="960" height="540" fill="#f7f7f7"></rect><path d="M117 0L126.2 15C135.3 30 153.7 60 170.7 90C187.7 120 203.3 150 204 180C204.7 210 190.3 240 179.8 270C169.3 300 162.7 330 162.7 360C162.7 390 169.3 420 157.8 450C146.3 480 116.7 510 101.8 525L87 540L0 540L0 525C0 510 0 480 0 450C0 420 0 390 0 360C0 330 0 300 0 270C0 240 0 210 0 180C0 150 0 120 0 90C0 60 0 30 0 15L0 0Z" fill="#063479" stroke-linecap="round" stroke-linejoin="miter"></path></svg>